<svg xmlns="http://www.w3.org/2000/svg" viewBox="0 0 1600 900" role="img">
<defs>
  <linearGradient id="bg" x1="0" y1="0" x2="1" y2="1"><stop stop-color="#091728"/><stop offset="1" stop-color="#132844"/></linearGradient>
  <linearGradient id="a" x1="0" y1="0" x2="1" y2="1"><stop stop-color="#6ca7ff"/><stop offset="1" stop-color="#72e6c7"/></linearGradient>
  <filter id="glow"><feGaussianBlur stdDeviation="10" result="b"/><feMerge><feMergeNode in="b"/><feMergeNode in="SourceGraphic"/></feMerge></filter>
  <pattern id="grid" width="48" height="48" patternUnits="userSpaceOnUse"><path d="M48 0H0V48" fill="none" stroke="#8eb8ef" stroke-opacity=".08"/></pattern>
</defs>
<rect width="1600" height="900" fill="url(#bg)"/><rect width="1600" height="900" fill="url(#grid)"/>

<g transform="translate(800 520)" fill="none" stroke="url(#a)" stroke-linejoin="round" filter="url(#glow)">
 <path d="M0-300L95-40 520 120 510 190 100 115 65 315 0 350-65 315-100 115-510 190-520 120-95-40Z" stroke-width="16" fill="#0c1d31"/>
 <path d="M0-260V300M-95-40H95" stroke-width="8" opacity=".6"/>
</g>
<g fill="#eaf3ff"><circle cx="800" cy="480" r="24"/><circle cx="800" cy="655" r="18"/></g>
<text x="110" y="140" fill="#72e6c7" font-family="Arial" font-size="28" font-weight="700" letter-spacing="6">UAV · MECHANICAL · EMBEDDED</text>
<text x="110" y="220" fill="#f4f7fb" font-family="Arial" font-size="62" font-weight="700">Adapted Modular</text>
<text x="110" y="292" fill="#f4f7fb" font-family="Arial" font-size="62" font-weight="700">Scimitar UAV</text>
</svg>
