<svg xmlns="http://www.w3.org/2000/svg" viewBox="0 0 1600 900" role="img">
<defs>
  <linearGradient id="bg" x1="0" y1="0" x2="1" y2="1"><stop stop-color="#091728"/><stop offset="1" stop-color="#132844"/></linearGradient>
  <linearGradient id="a" x1="0" y1="0" x2="1" y2="1"><stop stop-color="#6ca7ff"/><stop offset="1" stop-color="#72e6c7"/></linearGradient>
  <filter id="glow"><feGaussianBlur stdDeviation="10" result="b"/><feMerge><feMergeNode in="b"/><feMergeNode in="SourceGraphic"/></feMerge></filter>
  <pattern id="grid" width="48" height="48" patternUnits="userSpaceOnUse"><path d="M48 0H0V48" fill="none" stroke="#8eb8ef" stroke-opacity=".08"/></pattern>
</defs>
<rect width="1600" height="900" fill="url(#bg)"/><rect width="1600" height="900" fill="url(#grid)"/>

<g fill="none" stroke-linecap="round" filter="url(#glow)">
 <path d="M120 645 C250 570 290 680 430 570 S650 420 760 530 S960 720 1100 450 S1290 250 1480 380" stroke="#6ca7ff" stroke-width="12"/>
 <path d="M120 690 C300 690 330 480 510 535 S790 680 890 480 S1160 610 1480 270" stroke="#72e6c7" stroke-width="10" opacity=".9"/>
 <path d="M120 610 C260 430 450 470 560 600 S800 700 950 570 S1190 360 1480 520" stroke="#d9a7ff" stroke-width="8" opacity=".75"/>
</g>
<g stroke="#8eb8ef" stroke-opacity=".25"><path d="M120 730H1490"/><path d="M120 260V730"/></g>
<g fill="#b5c7df" font-family="Arial" font-size="24"><text x="125" y="770">Wavelength</text><text x="55" y="310" transform="rotate(-90 55 310)">Reflectance</text></g>
<text x="110" y="140" fill="#72e6c7" font-family="Arial" font-size="28" font-weight="700" letter-spacing="6">MACHINE LEARNING · SENSING</text>
<text x="110" y="220" fill="#f4f7fb" font-family="Arial" font-size="62" font-weight="700">Hyperspectral Plastic</text>
<text x="110" y="292" fill="#f4f7fb" font-family="Arial" font-size="62" font-weight="700">Identification</text>
</svg>
